<svg xmlns="http://www.w3.org/2000/svg" width="111" height="200" viewBox="0 0 111 200">
  <g id="Group_1227" data-name="Group 1227" transform="translate(13556 1968)">
    <circle id="Ellipse_185" data-name="Ellipse 185" cx="8.5" cy="8.5" r="8.5" transform="translate(-13556 -1968)" fill="#f4f2f0" opacity="0.34"/>
    <ellipse id="Ellipse_186" data-name="Ellipse 186" cx="8" cy="8.5" rx="8" ry="8.5" transform="translate(-13508 -1968)" fill="#f4f2f0" opacity="0.34"/>
    <ellipse id="Ellipse_187" data-name="Ellipse 187" cx="8" cy="8.5" rx="8" ry="8.5" transform="translate(-13461 -1968)" fill="#f4f2f0" opacity="0.34"/>
    <circle id="Ellipse_188" data-name="Ellipse 188" cx="8.5" cy="8.5" r="8.5" transform="translate(-13556 -1932)" fill="#f4f2f0" opacity="0.34"/>
    <ellipse id="Ellipse_189" data-name="Ellipse 189" cx="8" cy="8.5" rx="8" ry="8.5" transform="translate(-13508 -1932)" fill="#f4f2f0" opacity="0.34"/>
    <ellipse id="Ellipse_190" data-name="Ellipse 190" cx="8" cy="8.5" rx="8" ry="8.5" transform="translate(-13461 -1932)" fill="#f4f2f0" opacity="0.34"/>
    <ellipse id="Ellipse_191" data-name="Ellipse 191" cx="8.5" cy="8" rx="8.5" ry="8" transform="translate(-13556 -1894)" fill="#f4f2f0" opacity="0.34"/>
    <circle id="Ellipse_192" data-name="Ellipse 192" cx="8" cy="8" r="8" transform="translate(-13508 -1894)" fill="#f4f2f0" opacity="0.34"/>
    <circle id="Ellipse_193" data-name="Ellipse 193" cx="8" cy="8" r="8" transform="translate(-13461 -1894)" fill="#f4f2f0" opacity="0.34"/>
    <ellipse id="Ellipse_194" data-name="Ellipse 194" cx="8.5" cy="8" rx="8.5" ry="8" transform="translate(-13556 -1857)" fill="#f4f2f0" opacity="0.34"/>
    <circle id="Ellipse_195" data-name="Ellipse 195" cx="8" cy="8" r="8" transform="translate(-13508 -1857)" fill="#f4f2f0" opacity="0.34"/>
    <circle id="Ellipse_196" data-name="Ellipse 196" cx="8" cy="8" r="8" transform="translate(-13461 -1857)" fill="#f4f2f0" opacity="0.34"/>
    <ellipse id="Ellipse_197" data-name="Ellipse 197" cx="8.5" cy="8" rx="8.5" ry="8" transform="translate(-13556 -1821)" fill="#f4f2f0" opacity="0.34"/>
    <circle id="Ellipse_198" data-name="Ellipse 198" cx="8" cy="8" r="8" transform="translate(-13508 -1821)" fill="#f4f2f0" opacity="0.34"/>
    <circle id="Ellipse_199" data-name="Ellipse 199" cx="8" cy="8" r="8" transform="translate(-13461 -1821)" fill="#f4f2f0" opacity="0.34"/>
    <ellipse id="Ellipse_200" data-name="Ellipse 200" cx="8.5" cy="8" rx="8.5" ry="8" transform="translate(-13556 -1784)" fill="#f4f2f0" opacity="0.34"/>
    <circle id="Ellipse_201" data-name="Ellipse 201" cx="8" cy="8" r="8" transform="translate(-13508 -1784)" fill="#f4f2f0" opacity="0.34"/>
    <circle id="Ellipse_202" data-name="Ellipse 202" cx="8" cy="8" r="8" transform="translate(-13461 -1784)" fill="#f4f2f0" opacity="0.34"/>
  </g>
</svg>
